<svg width="15" height="15" viewBox="0 0 15 15" fill="none" xmlns="http://www.w3.org/2000/svg">
<g clip-path="url(#clip0_266_838)">
<path d="M14.8167 0.182992C14.6995 0.0658221 14.5406 0 14.3749 0C14.2091 0 14.0502 0.0658221 13.933 0.182992L7.49987 6.61612L1.06674 0.182992C0.949537 0.0658221 0.790594 0 0.624867 0C0.459139 0 0.300196 0.0658221 0.182992 0.182992C0.0658221 0.300196 0 0.459139 0 0.624867C0 0.790594 0.0658221 0.949537 0.182992 1.06674L6.61612 7.49987L0.182992 13.933C0.0658221 14.0502 0 14.2091 0 14.3749C0 14.5406 0.0658221 14.6995 0.182992 14.8167C0.300196 14.9339 0.459139 14.9997 0.624867 14.9997C0.790594 14.9997 0.949537 14.9339 1.06674 14.8167L7.49987 8.38362L13.933 14.8167C14.0502 14.9339 14.2091 14.9997 14.3749 14.9997C14.5406 14.9997 14.6995 14.9339 14.8167 14.8167C14.9339 14.6995 14.9997 14.5406 14.9997 14.3749C14.9997 14.2091 14.9339 14.0502 14.8167 13.933L8.38362 7.49987L14.8167 1.06674C14.9339 0.949537 14.9997 0.790594 14.9997 0.624867C14.9997 0.459139 14.9339 0.300196 14.8167 0.182992Z" fill="#323232"/>
</g>
<defs>
<clipPath id="clip0_266_838">
<rect width="15" height="15" fill="white"/>
</clipPath>
</defs>
</svg>
