<svg width="15" height="15" viewBox="0 0 15 15" fill="none" xmlns="http://www.w3.org/2000/svg">
<g clip-path="url(#clip0_425_486)">
<mask id="path-1-inside-1_425_486" fill="white">
<path d="M14.8167 0.182992C14.6995 0.0658221 14.5406 0 14.3749 0C14.2091 0 14.0502 0.0658221 13.933 0.182992L7.49987 6.61612L1.06674 0.182992C0.949537 0.0658221 0.790594 0 0.624867 0C0.459139 0 0.300196 0.0658221 0.182992 0.182992C0.0658221 0.300196 0 0.459139 0 0.624867C0 0.790594 0.0658221 0.949537 0.182992 1.06674L6.61612 7.49987L0.182992 13.933C0.0658221 14.0502 0 14.2091 0 14.3749C0 14.5406 0.0658221 14.6995 0.182992 14.8167C0.300196 14.9339 0.459139 14.9997 0.624867 14.9997C0.790594 14.9997 0.949537 14.9339 1.06674 14.8167L7.49987 8.38362L13.933 14.8167C14.0502 14.9339 14.2091 14.9997 14.3749 14.9997C14.5406 14.9997 14.6995 14.9339 14.8167 14.8167C14.9339 14.6995 14.9997 14.5406 14.9997 14.3749C14.9997 14.2091 14.9339 14.0502 14.8167 13.933L8.38362 7.49987L14.8167 1.06674C14.9339 0.949537 14.9997 0.790594 14.9997 0.624867C14.9997 0.459139 14.9339 0.300196 14.8167 0.182992Z"/>
</mask>
<path d="M14.8167 0.182992C14.6995 0.0658221 14.5406 0 14.3749 0C14.2091 0 14.0502 0.0658221 13.933 0.182992L7.49987 6.61612L1.06674 0.182992C0.949537 0.0658221 0.790594 0 0.624867 0C0.459139 0 0.300196 0.0658221 0.182992 0.182992C0.0658221 0.300196 0 0.459139 0 0.624867C0 0.790594 0.0658221 0.949537 0.182992 1.06674L6.61612 7.49987L0.182992 13.933C0.0658221 14.0502 0 14.2091 0 14.3749C0 14.5406 0.0658221 14.6995 0.182992 14.8167C0.300196 14.9339 0.459139 14.9997 0.624867 14.9997C0.790594 14.9997 0.949537 14.9339 1.06674 14.8167L7.49987 8.38362L13.933 14.8167C14.0502 14.9339 14.2091 14.9997 14.3749 14.9997C14.5406 14.9997 14.6995 14.9339 14.8167 14.8167C14.9339 14.6995 14.9997 14.5406 14.9997 14.3749C14.9997 14.2091 14.9339 14.0502 14.8167 13.933L8.38362 7.49987L14.8167 1.06674C14.9339 0.949537 14.9997 0.790594 14.9997 0.624867C14.9997 0.459139 14.9339 0.300196 14.8167 0.182992Z" fill="#323232"/>
<path d="M14.8167 0.182992L15.8776 -0.877508L15.8772 -0.877829L14.8167 0.182992ZM13.933 0.182992L12.8725 -0.877829L12.8723 -0.877669L13.933 0.182992ZM7.49987 6.61612L6.43921 7.67678L7.49987 8.73744L8.56053 7.67678L7.49987 6.61612ZM1.06674 0.182992L2.1274 -0.877669L2.12724 -0.877829L1.06674 0.182992ZM0.624867 0V-1.5V0ZM0.182992 0.182992L-0.877508 -0.877829L-0.877829 -0.877508L0.182992 0.182992ZM0.182992 1.06674L-0.877829 2.12724L-0.877669 2.1274L0.182992 1.06674ZM6.61612 7.49987L7.67678 8.56053L8.73744 7.49987L7.67678 6.43921L6.61612 7.49987ZM0.182992 13.933L-0.877669 12.8723L-0.877829 12.8725L0.182992 13.933ZM0 14.3749H-1.5H0ZM0.182992 14.8167L-0.877829 15.8772L-0.877508 15.8776L0.182992 14.8167ZM1.06674 14.8167L2.12724 15.8776L2.1274 15.8774L1.06674 14.8167ZM7.49987 8.38362L8.56053 7.32296L7.49987 6.2623L6.43921 7.32296L7.49987 8.38362ZM13.933 14.8167L12.8723 15.8774L12.8725 15.8776L13.933 14.8167ZM14.8167 14.8167L15.8772 15.8776L15.8776 15.8772L14.8167 14.8167ZM14.8167 13.933L15.8776 12.8725L15.8774 12.8723L14.8167 13.933ZM8.38362 7.49987L7.32296 6.43921L6.2623 7.49987L7.32296 8.56053L8.38362 7.49987ZM14.8167 1.06674L15.8774 2.1274L15.8776 2.12724L14.8167 1.06674ZM14.8167 0.182992L15.8772 -0.877829C15.4787 -1.27621 14.9383 -1.5 14.3749 -1.5V0V1.5C14.1428 1.5 13.9203 1.40785 13.7562 1.24381L14.8167 0.182992ZM14.3749 0V-1.5C13.8114 -1.5 13.271 -1.27621 12.8725 -0.877829L13.933 0.182992L14.9935 1.24381C14.8294 1.40785 14.6069 1.5 14.3749 1.5V0ZM13.933 0.182992L12.8723 -0.877669L6.43921 5.55546L7.49987 6.61612L8.56053 7.67678L14.9937 1.24365L13.933 0.182992ZM7.49987 6.61612L8.56053 5.55546L2.1274 -0.877669L1.06674 0.182992L0.00608148 1.24365L6.43921 7.67678L7.49987 6.61612ZM1.06674 0.182992L2.12724 -0.877829C1.72875 -1.2762 1.18834 -1.5 0.624867 -1.5V0V1.5C0.392848 1.5 0.170328 1.40785 0.00624167 1.24381L1.06674 0.182992ZM0.624867 0V-1.5C0.0613925 -1.5 -0.479012 -1.2762 -0.877508 -0.877829L0.182992 0.182992L1.24349 1.24381C1.0794 1.40785 0.856885 1.5 0.624867 1.5V0ZM0.182992 0.182992L-0.877829 -0.877508C-1.2762 -0.479012 -1.5 0.0613925 -1.5 0.624867H0H1.5C1.5 0.856885 1.40785 1.0794 1.24381 1.24349L0.182992 0.182992ZM0 0.624867H-1.5C-1.5 1.18834 -1.2762 1.72875 -0.877829 2.12724L0.182992 1.06674L1.24381 0.00624167C1.40785 0.170328 1.5 0.392848 1.5 0.624867H0ZM0.182992 1.06674L-0.877669 2.1274L5.55546 8.56053L6.61612 7.49987L7.67678 6.43921L1.24365 0.00608148L0.182992 1.06674ZM6.61612 7.49987L5.55546 6.43921L-0.877669 12.8723L0.182992 13.933L1.24365 14.9937L7.67678 8.56053L6.61612 7.49987ZM0.182992 13.933L-0.877829 12.8725C-1.27621 13.271 -1.5 13.8114 -1.5 14.3749H0H1.5C1.5 14.6069 1.40785 14.8294 1.24381 14.9935L0.182992 13.933ZM0 14.3749H-1.5C-1.5 14.9383 -1.27621 15.4787 -0.877829 15.8772L0.182992 14.8167L1.24381 13.7562C1.40785 13.9203 1.5 14.1428 1.5 14.3749H0ZM0.182992 14.8167L-0.877508 15.8776C-0.47901 16.2759 0.0613958 16.4997 0.624867 16.4997V14.9997V13.4997C0.856882 13.4997 1.0794 13.5919 1.24349 13.7559L0.182992 14.8167ZM0.624867 14.9997V16.4997C1.18834 16.4997 1.72874 16.2759 2.12724 15.8776L1.06674 14.8167L0.00624167 13.7559C0.170331 13.5919 0.392851 13.4997 0.624867 13.4997V14.9997ZM1.06674 14.8167L2.1274 15.8774L8.56053 9.44428L7.49987 8.38362L6.43921 7.32296L0.00608143 13.7561L1.06674 14.8167ZM7.49987 8.38362L6.43921 9.44428L12.8723 15.8774L13.933 14.8167L14.9937 13.7561L8.56053 7.32296L7.49987 8.38362ZM13.933 14.8167L12.8725 15.8776C13.271 16.2759 13.8114 16.4997 14.3749 16.4997V14.9997V13.4997C14.6069 13.4997 14.8294 13.5919 14.9935 13.7559L13.933 14.8167ZM14.3749 14.9997V16.4997C14.9383 16.4997 15.4787 16.2759 15.8772 15.8776L14.8167 14.8167L13.7562 13.7559C13.9203 13.5919 14.1429 13.4997 14.3749 13.4997V14.9997ZM14.8167 14.8167L15.8776 15.8772C16.2759 15.4787 16.4997 14.9383 16.4997 14.3749H14.9997H13.4997C13.4997 14.1429 13.5919 13.9203 13.7559 13.7562L14.8167 14.8167ZM14.9997 14.3749H16.4997C16.4997 13.8114 16.2759 13.271 15.8776 12.8725L14.8167 13.933L13.7559 14.9935C13.5919 14.8294 13.4997 14.6069 13.4997 14.3749H14.9997ZM14.8167 13.933L15.8774 12.8723L9.44428 6.43921L8.38362 7.49987L7.32296 8.56053L13.7561 14.9937L14.8167 13.933ZM8.38362 7.49987L9.44428 8.56053L15.8774 2.1274L14.8167 1.06674L13.7561 0.00608143L7.32296 6.43921L8.38362 7.49987ZM14.8167 1.06674L15.8776 2.12724C16.2759 1.72874 16.4997 1.18834 16.4997 0.624867H14.9997H13.4997C13.4997 0.392851 13.5919 0.170331 13.7559 0.00624167L14.8167 1.06674ZM14.9997 0.624867H16.4997C16.4997 0.0613958 16.2759 -0.47901 15.8776 -0.877508L14.8167 0.182992L13.7559 1.24349C13.5919 1.0794 13.4997 0.856882 13.4997 0.624867H14.9997Z" fill="#323232" mask="url(#path-1-inside-1_425_486)"/>
</g>
<defs>
<clipPath id="clip0_425_486">
<rect width="15" height="15" fill="white"/>
</clipPath>
</defs>
</svg>
