<svg width="20" height="20" viewBox="0 0 20 20" fill="none" xmlns="http://www.w3.org/2000/svg">
<path d="M19.1667 9.16667H0.833333C0.373096 9.16667 0 9.53977 0 10C0 10.4602 0.373096 10.8333 0.833333 10.8333H19.1667C19.6269 10.8333 20 10.4602 20 10C20 9.53977 19.6269 9.16667 19.1667 9.16667Z" fill="#323232"/>
<path d="M19.1667 3.33333H0.833333C0.373096 3.33333 0 3.70642 0 4.16666C0 4.6269 0.373096 4.99999 0.833333 4.99999H19.1667C19.6269 4.99999 20 4.6269 20 4.16666C20 3.70642 19.6269 3.33333 19.1667 3.33333Z" fill="#323232"/>
<path d="M19.1667 15H0.833333C0.373096 15 0 15.3731 0 15.8333C0 16.2936 0.373096 16.6667 0.833333 16.6667H19.1667C19.6269 16.6667 20 16.2936 20 15.8333C20 15.3731 19.6269 15 19.1667 15Z" fill="#323232"/>
</svg>
