<svg width="11" height="10" viewBox="0 0 11 10" fill="none" xmlns="http://www.w3.org/2000/svg">
<g clip-path="url(#clip0_270_95)">
<path d="M0.688246 2.53296C0.870521 2.5331 1.04527 2.59905 1.17408 2.71629L4.69041 5.91296C4.79682 6.00972 4.92315 6.08647 5.06218 6.13883C5.20122 6.1912 5.35025 6.21815 5.50075 6.21815C5.65124 6.21815 5.80027 6.1912 5.93931 6.13883C6.07834 6.08647 6.20467 6.00972 6.31108 5.91296L9.82512 2.72046C9.95478 2.60661 10.1284 2.54361 10.3087 2.54504C10.489 2.54646 10.6614 2.61219 10.7889 2.72807C10.9163 2.84395 10.9886 3.00071 10.9902 3.16458C10.9918 3.32846 10.9225 3.48633 10.7972 3.60421L7.28595 6.79671C6.81283 7.22597 6.1717 7.46706 5.50327 7.46706C4.83483 7.46706 4.1937 7.22597 3.72058 6.79671L0.204246 3.60004C0.108171 3.51276 0.0426883 3.40156 0.0160617 3.28048C-0.0105639 3.1594 0.00285718 3.03386 0.054635 2.9197C0.106412 2.80555 0.194224 2.7079 0.30699 2.63907C0.419755 2.57024 0.552421 2.53331 0.688246 2.53296Z" fill="black"/>
</g>
<defs>
<clipPath id="clip0_270_95">
<rect x="11" width="10" height="11" rx="5" transform="rotate(90 11 0)" fill="white"/>
</clipPath>
</defs>
</svg>
