<svg width="30" height="30" viewBox="0 0 30 30" fill="none" xmlns="http://www.w3.org/2000/svg">
<rect x="0.5" y="0.5" width="29" height="29" rx="14.5" fill="white" stroke="#EBEBEB"/>
<g clip-path="url(#clip0_622_380)">
<path d="M8.93695 18.5C9.41945 19.3374 10.4895 19.6251 11.3269 19.1426C11.3275 19.1423 11.328 19.142 11.3286 19.1416L11.5882 18.9917C12.0782 19.411 12.6414 19.7361 13.2495 19.9507V20.25C13.2495 21.2165 14.033 22 14.9995 22C15.966 22 16.7495 21.2165 16.7495 20.25V19.9508C17.3577 19.7357 17.921 19.4102 18.4108 18.9906L18.6716 19.1411C19.5092 19.6243 20.58 19.337 21.0633 18.4994C21.5465 17.6618 21.2592 16.591 20.4216 16.1077L20.1626 15.9584C20.2792 15.324 20.2792 14.6737 20.1626 14.0392L20.4216 13.8899C21.2592 13.4067 21.5465 12.3359 21.0633 11.4982C20.58 10.6606 19.5092 10.3733 18.6716 10.8565L18.412 11.0065C17.9215 10.5878 17.3579 10.2632 16.7495 10.0493V9.75C16.7495 8.78351 15.966 8 14.9995 8C14.033 8 13.2495 8.78351 13.2495 9.75V10.0493C12.6413 10.2643 12.0781 10.5898 11.5882 11.0094L11.3274 10.8584C10.4898 10.3751 9.41902 10.6624 8.93577 11.5C8.45252 12.3376 8.7398 13.4084 9.57745 13.8917L9.83645 14.041C9.71985 14.6754 9.71985 15.3257 9.83645 15.9602L9.57745 16.1095C8.74212 16.594 8.45578 17.6627 8.93695 18.5ZM14.9995 12.6667C16.2882 12.6667 17.3328 13.7113 17.3328 15C17.3328 16.2887 16.2882 17.3333 14.9995 17.3333C13.7109 17.3333 12.6662 16.2887 12.6662 15C12.6662 13.7113 13.7109 12.6667 14.9995 12.6667Z" fill="#323232"/>
</g>
<defs>
<clipPath id="clip0_622_380">
<rect width="14" height="14" fill="white" transform="translate(8 8)"/>
</clipPath>
</defs>
</svg>
