<svg width="25" height="25" viewBox="0 0 25 25" fill="none" xmlns="http://www.w3.org/2000/svg">
<path d="M6.33271 1.56773C6.33308 1.98199 6.49794 2.37915 6.79105 2.67189L14.7827 10.6636C15.0246 10.9054 15.2165 11.1925 15.3474 11.5085C15.4783 11.8245 15.5457 12.1632 15.5457 12.5052C15.5457 12.8473 15.4783 13.186 15.3474 13.502C15.2165 13.818 15.0246 14.1051 14.7827 14.3469L6.80146 22.3281C6.51684 22.6228 6.35935 23.0175 6.36291 23.4272C6.36647 23.8369 6.5308 24.2288 6.8205 24.5185C7.1102 24.8082 7.50209 24.9725 7.91177 24.9761C8.32146 24.9796 8.71615 24.8221 9.01084 24.5375L16.9921 16.5625C18.0653 15.4872 18.668 14.0301 18.668 12.511C18.668 10.9918 18.0653 9.53467 16.9921 8.45939L9.00042 0.462517C8.7819 0.243855 8.50343 0.0949271 8.20024 0.0345791C7.89705 -0.025769 7.58277 0.00517492 7.29717 0.123495C7.01158 0.241816 6.7675 0.442194 6.59582 0.699276C6.42414 0.956358 6.33257 1.25859 6.33271 1.56773Z" fill="black"/>
</svg>
