<svg width="18" height="19" viewBox="0 0 18 19" fill="none" xmlns="http://www.w3.org/2000/svg">
<g clip-path="url(#clip0_266_73)">
<path d="M14.25 3.16667H13.869L12.231 0.924667C12.0199 0.63793 11.7497 0.405663 11.441 0.245459C11.1323 0.0852557 10.793 0.00131658 10.449 0L7.551 0C7.20697 0.00131658 6.86774 0.0852557 6.559 0.245459C6.25026 0.405663 5.9801 0.63793 5.769 0.924667L4.131 3.16667H3.75C2.7558 3.16792 1.80267 3.58537 1.09966 4.32742C0.396661 5.06948 0.00119089 6.07557 0 7.125L0 15.0417C0.00119089 16.0911 0.396661 17.0972 1.09966 17.8392C1.80267 18.5813 2.7558 18.9987 3.75 19H14.25C15.2442 18.9987 16.1973 18.5813 16.9003 17.8392C17.6033 17.0972 17.9988 16.0911 18 15.0417V7.125C17.9988 6.07557 17.6033 5.06948 16.9003 4.32742C16.1973 3.58537 15.2442 3.16792 14.25 3.16667ZM6.957 1.89208C7.02725 1.79633 7.11727 1.71876 7.2202 1.66526C7.32313 1.61176 7.43627 1.58374 7.551 1.58333H10.449C10.5637 1.58385 10.6768 1.61192 10.7797 1.66542C10.8826 1.71891 10.9727 1.79642 11.043 1.89208L11.9745 3.16667H6.0255L6.957 1.89208ZM16.5 15.0417C16.5 15.6716 16.2629 16.2756 15.841 16.721C15.419 17.1664 14.8467 17.4167 14.25 17.4167H3.75C3.15326 17.4167 2.58097 17.1664 2.15901 16.721C1.73705 16.2756 1.5 15.6716 1.5 15.0417V7.125C1.5 6.49511 1.73705 5.89102 2.15901 5.44562C2.58097 5.00022 3.15326 4.75 3.75 4.75H14.25C14.8467 4.75 15.419 5.00022 15.841 5.44562C16.2629 5.89102 16.5 6.49511 16.5 7.125V15.0417Z" fill="#323232"/>
<path d="M9 6.33337C8.10999 6.33337 7.23996 6.61196 6.49994 7.13389C5.75991 7.65583 5.18314 8.39768 4.84254 9.26563C4.50195 10.1336 4.41283 11.0886 4.58647 12.0101C4.7601 12.9315 5.18869 13.7778 5.81802 14.4421C6.44736 15.1064 7.24918 15.5588 8.1221 15.7421C8.99501 15.9254 9.89981 15.8313 10.7221 15.4718C11.5443 15.1123 12.2471 14.5035 12.7416 13.7223C13.2361 12.9412 13.5 12.0228 13.5 11.0834C13.4988 9.82398 13.0243 8.61653 12.1807 7.72601C11.337 6.83548 10.1931 6.33463 9 6.33337ZM9 14.25C8.40666 14.25 7.82664 14.0643 7.33329 13.7164C6.83994 13.3684 6.45543 12.8738 6.22836 12.2952C6.0013 11.7166 5.94189 11.0799 6.05765 10.4656C6.1734 9.85131 6.45912 9.28707 6.87868 8.8442C7.29824 8.40134 7.83279 8.09974 8.41473 7.97755C8.99667 7.85537 9.59987 7.91808 10.1481 8.15776C10.6962 8.39743 11.1648 8.80331 11.4944 9.32407C11.8241 9.84482 12 10.4571 12 11.0834C12 11.9232 11.6839 12.7287 11.1213 13.3225C10.5587 13.9164 9.79565 14.25 9 14.25Z" fill="#323232"/>
</g>
<defs>
<clipPath id="clip0_266_73">
<rect width="18" height="19" fill="white"/>
</clipPath>
</defs>
</svg>
