<svg width="16" height="16" viewBox="0 0 16 16" fill="none" xmlns="http://www.w3.org/2000/svg">
<g clip-path="url(#clip0_297_1750)">
<mask id="path-1-inside-1_297_1750" fill="white">
<path d="M15.8045 0.195191C15.6795 0.0702103 15.51 0 15.3332 0C15.1564 0 14.9869 0.0702103 14.8619 0.195191L7.99986 7.05719L1.13786 0.195191C1.01284 0.0702103 0.8433 0 0.666524 0C0.489748 0 0.320209 0.0702103 0.195191 0.195191C0.0702103 0.320209 0 0.489748 0 0.666524C0 0.8433 0.0702103 1.01284 0.195191 1.13786L7.05719 7.99986L0.195191 14.8619C0.0702103 14.9869 0 15.1564 0 15.3332C0 15.51 0.0702103 15.6795 0.195191 15.8045C0.320209 15.9295 0.489748 15.9997 0.666524 15.9997C0.8433 15.9997 1.01284 15.9295 1.13786 15.8045L7.99986 8.94252L14.8619 15.8045C14.9869 15.9295 15.1564 15.9997 15.3332 15.9997C15.51 15.9997 15.6795 15.9295 15.8045 15.8045C15.9295 15.6795 15.9997 15.51 15.9997 15.3332C15.9997 15.1564 15.9295 14.9869 15.8045 14.8619L8.94252 7.99986L15.8045 1.13786C15.9295 1.01284 15.9997 0.8433 15.9997 0.666524C15.9997 0.489748 15.9295 0.320209 15.8045 0.195191Z"/>
</mask>
<path d="M15.8045 0.195191C15.6795 0.0702103 15.51 0 15.3332 0C15.1564 0 14.9869 0.0702103 14.8619 0.195191L7.99986 7.05719L1.13786 0.195191C1.01284 0.0702103 0.8433 0 0.666524 0C0.489748 0 0.320209 0.0702103 0.195191 0.195191C0.0702103 0.320209 0 0.489748 0 0.666524C0 0.8433 0.0702103 1.01284 0.195191 1.13786L7.05719 7.99986L0.195191 14.8619C0.0702103 14.9869 0 15.1564 0 15.3332C0 15.51 0.0702103 15.6795 0.195191 15.8045C0.320209 15.9295 0.489748 15.9997 0.666524 15.9997C0.8433 15.9997 1.01284 15.9295 1.13786 15.8045L7.99986 8.94252L14.8619 15.8045C14.9869 15.9295 15.1564 15.9997 15.3332 15.9997C15.51 15.9997 15.6795 15.9295 15.8045 15.8045C15.9295 15.6795 15.9997 15.51 15.9997 15.3332C15.9997 15.1564 15.9295 14.9869 15.8045 14.8619L8.94252 7.99986L15.8045 1.13786C15.9295 1.01284 15.9997 0.8433 15.9997 0.666524C15.9997 0.489748 15.9295 0.320209 15.8045 0.195191Z" fill="#323232"/>
<path d="M15.8045 0.195191L16.8653 -0.865309L16.865 -0.865629L15.8045 0.195191ZM14.8619 0.195191L13.8014 -0.865629L13.8012 -0.865469L14.8619 0.195191ZM7.99986 7.05719L6.9392 8.11785L7.99986 9.17851L9.06052 8.11785L7.99986 7.05719ZM1.13786 0.195191L2.19852 -0.865469L2.19836 -0.865629L1.13786 0.195191ZM0.666524 0V-1.5V0ZM0.195191 0.195191L-0.865309 -0.865629L-0.865629 -0.865309L0.195191 0.195191ZM0.195191 1.13786L-0.865629 2.19836L-0.865469 2.19852L0.195191 1.13786ZM7.05719 7.99986L8.11785 9.06052L9.17851 7.99986L8.11785 6.9392L7.05719 7.99986ZM0.195191 14.8619L-0.865469 13.8012L-0.865629 13.8014L0.195191 14.8619ZM0 15.3332H-1.5H0ZM0.195191 15.8045L-0.865629 16.865L-0.865309 16.8653L0.195191 15.8045ZM1.13786 15.8045L2.19836 16.8653L2.19852 16.8652L1.13786 15.8045ZM7.99986 8.94252L9.06052 7.88186L7.99986 6.8212L6.9392 7.88186L7.99986 8.94252ZM14.8619 15.8045L13.8012 16.8652L13.8014 16.8653L14.8619 15.8045ZM15.8045 15.8045L16.865 16.8653L16.8653 16.865L15.8045 15.8045ZM15.8045 14.8619L16.8653 13.8014L16.8652 13.8012L15.8045 14.8619ZM8.94252 7.99986L7.88186 6.9392L6.8212 7.99986L7.88186 9.06052L8.94252 7.99986ZM15.8045 1.13786L16.8652 2.19852L16.8653 2.19836L15.8045 1.13786ZM15.8045 0.195191L16.865 -0.865629C16.4587 -1.27182 15.9077 -1.5 15.3332 -1.5V0V1.5C15.1122 1.5 14.9003 1.41224 14.744 1.25601L15.8045 0.195191ZM15.3332 0V-1.5C14.7587 -1.5 14.2077 -1.27182 13.8014 -0.865629L14.8619 0.195191L15.9224 1.25601C15.7661 1.41224 15.5542 1.5 15.3332 1.5V0ZM14.8619 0.195191L13.8012 -0.865469L6.9392 5.99653L7.99986 7.05719L9.06052 8.11785L15.9225 1.25585L14.8619 0.195191ZM7.99986 7.05719L9.06052 5.99653L2.19852 -0.865469L1.13786 0.195191L0.0771975 1.25585L6.9392 8.11785L7.99986 7.05719ZM1.13786 0.195191L2.19836 -0.865629C1.79205 -1.27182 1.24105 -1.5 0.666524 -1.5V0V1.5C0.445554 1.5 0.233631 1.41224 0.0773577 1.25601L1.13786 0.195191ZM0.666524 0V-1.5C0.0920018 -1.5 -0.458999 -1.27182 -0.865309 -0.865629L0.195191 0.195191L1.25569 1.25601C1.09942 1.41224 0.887495 1.5 0.666524 1.5V0ZM0.195191 0.195191L-0.865629 -0.865309C-1.27182 -0.458999 -1.5 0.0920018 -1.5 0.666524H0H1.5C1.5 0.887495 1.41224 1.09942 1.25601 1.25569L0.195191 0.195191ZM0 0.666524H-1.5C-1.5 1.24105 -1.27182 1.79205 -0.865629 2.19836L0.195191 1.13786L1.25601 0.0773577C1.41224 0.233631 1.5 0.445554 1.5 0.666524H0ZM0.195191 1.13786L-0.865469 2.19852L5.99653 9.06052L7.05719 7.99986L8.11785 6.9392L1.25585 0.0771975L0.195191 1.13786ZM7.05719 7.99986L5.99653 6.9392L-0.865469 13.8012L0.195191 14.8619L1.25585 15.9225L8.11785 9.06052L7.05719 7.99986ZM0.195191 14.8619L-0.865629 13.8014C-1.27182 14.2077 -1.5 14.7587 -1.5 15.3332H0H1.5C1.5 15.5542 1.41224 15.7661 1.25601 15.9224L0.195191 14.8619ZM0 15.3332H-1.5C-1.5 15.9077 -1.27182 16.4587 -0.865629 16.865L0.195191 15.8045L1.25601 14.744C1.41224 14.9003 1.5 15.1122 1.5 15.3332H0ZM0.195191 15.8045L-0.865309 16.8653C-0.458997 17.2715 0.092005 17.4997 0.666524 17.4997V15.9997V14.4997C0.887491 14.4997 1.09942 14.5875 1.25569 14.7437L0.195191 15.8045ZM0.666524 15.9997V17.4997C1.24104 17.4997 1.79205 17.2715 2.19836 16.8653L1.13786 15.8045L0.0773577 14.7437C0.233633 14.5875 0.445557 14.4997 0.666524 14.4997V15.9997ZM1.13786 15.8045L2.19852 16.8652L9.06052 10.0032L7.99986 8.94252L6.9392 7.88186L0.0771975 14.7439L1.13786 15.8045ZM7.99986 8.94252L6.9392 10.0032L13.8012 16.8652L14.8619 15.8045L15.9225 14.7439L9.06052 7.88186L7.99986 8.94252ZM14.8619 15.8045L13.8014 16.8653C14.2077 17.2715 14.7587 17.4997 15.3332 17.4997V15.9997V14.4997C15.5542 14.4997 15.7661 14.5875 15.9224 14.7437L14.8619 15.8045ZM15.3332 15.9997V17.4997C15.9077 17.4997 16.4587 17.2715 16.865 16.8653L15.8045 15.8045L14.744 14.7437C14.9003 14.5875 15.1122 14.4997 15.3332 14.4997V15.9997ZM15.8045 15.8045L16.8653 16.865C17.2715 16.4587 17.4997 15.9077 17.4997 15.3332H15.9997H14.4997C14.4997 15.1122 14.5875 14.9003 14.7437 14.744L15.8045 15.8045ZM15.9997 15.3332H17.4997C17.4997 14.7587 17.2715 14.2077 16.8653 13.8014L15.8045 14.8619L14.7437 15.9224C14.5875 15.7661 14.4997 15.5542 14.4997 15.3332H15.9997ZM15.8045 14.8619L16.8652 13.8012L10.0032 6.9392L8.94252 7.99986L7.88186 9.06052L14.7439 15.9225L15.8045 14.8619ZM8.94252 7.99986L10.0032 9.06052L16.8652 2.19852L15.8045 1.13786L14.7439 0.0771975L7.88186 6.9392L8.94252 7.99986ZM15.8045 1.13786L16.8653 2.19836C17.2715 1.79205 17.4997 1.24104 17.4997 0.666524H15.9997H14.4997C14.4997 0.445557 14.5875 0.233633 14.7437 0.0773577L15.8045 1.13786ZM15.9997 0.666524H17.4997C17.4997 0.092005 17.2715 -0.458997 16.8653 -0.865309L15.8045 0.195191L14.7437 1.25569C14.5875 1.09942 14.4997 0.887491 14.4997 0.666524H15.9997Z" fill="#323232" mask="url(#path-1-inside-1_297_1750)"/>
</g>
<defs>
<clipPath id="clip0_297_1750">
<rect width="16" height="16" fill="white"/>
</clipPath>
</defs>
</svg>
