<svg width="25" height="25" viewBox="0 0 25 25" fill="none" xmlns="http://www.w3.org/2000/svg">
<g clip-path="url(#clip0_297_1030)">
<path d="M19.7917 4.16667H19.2625L16.9875 1.21667C16.6943 0.839381 16.3191 0.533767 15.8903 0.322973C15.4615 0.112179 14.9903 0.00173234 14.5125 0L10.4875 0C10.0097 0.00173234 9.53853 0.112179 9.10972 0.322973C8.68091 0.533767 8.3057 0.839381 8.0125 1.21667L5.7375 4.16667H5.20833C3.82751 4.16832 2.50371 4.71759 1.52731 5.69398C0.550919 6.67037 0.00165402 7.99417 0 9.375L0 19.7917C0.00165402 21.1725 0.550919 22.4963 1.52731 23.4727C2.50371 24.4491 3.82751 24.9983 5.20833 25H19.7917C21.1725 24.9983 22.4963 24.4491 23.4727 23.4727C24.4491 22.4963 24.9983 21.1725 25 19.7917V9.375C24.9983 7.99417 24.4491 6.67037 23.4727 5.69398C22.4963 4.71759 21.1725 4.16832 19.7917 4.16667ZM9.6625 2.48958C9.76007 2.3636 9.8851 2.26152 10.0281 2.19113C10.171 2.12073 10.3281 2.08386 10.4875 2.08333H14.5125C14.6718 2.08402 14.8289 2.12095 14.9718 2.19134C15.1148 2.26172 15.2398 2.36371 15.3375 2.48958L16.6312 4.16667H8.36875L9.6625 2.48958ZM22.9167 19.7917C22.9167 20.6205 22.5874 21.4153 22.0014 22.0014C21.4153 22.5874 20.6205 22.9167 19.7917 22.9167H5.20833C4.37953 22.9167 3.58468 22.5874 2.99862 22.0014C2.41257 21.4153 2.08333 20.6205 2.08333 19.7917V9.375C2.08333 8.5462 2.41257 7.75134 2.99862 7.16529C3.58468 6.57924 4.37953 6.25 5.20833 6.25H19.7917C20.6205 6.25 21.4153 6.57924 22.0014 7.16529C22.5874 7.75134 22.9167 8.5462 22.9167 9.375V19.7917Z" fill="white"/>
<path d="M12.5 8.3335C11.2639 8.3335 10.0555 8.70005 9.02769 9.38681C7.99988 10.0736 7.1988 11.0497 6.72576 12.1917C6.25271 13.3338 6.12894 14.5904 6.37009 15.8028C6.61125 17.0152 7.20651 18.1288 8.08059 19.0029C8.95466 19.877 10.0683 20.4722 11.2807 20.7134C12.4931 20.9546 13.7497 20.8308 14.8918 20.3577C16.0338 19.8847 17.0099 19.0836 17.6967 18.0558C18.3834 17.028 18.75 15.8196 18.75 14.5835C18.7483 12.9264 18.0893 11.3376 16.9176 10.1659C15.7458 8.99416 14.1571 8.33515 12.5 8.3335ZM12.5 18.7502C11.6759 18.7502 10.8703 18.5058 10.1851 18.048C9.49992 17.5901 8.96587 16.9394 8.6505 16.178C8.33514 15.4167 8.25263 14.5789 8.4134 13.7706C8.57417 12.9624 8.97101 12.2199 9.55372 11.6372C10.1364 11.0545 10.8789 10.6577 11.6871 10.4969C12.4954 10.3361 13.3332 10.4186 14.0945 10.734C14.8559 11.0494 15.5066 11.5834 15.9645 12.2686C16.4223 12.9538 16.6667 13.7594 16.6667 14.5835C16.6667 15.6886 16.2277 16.7484 15.4463 17.5298C14.6649 18.3112 13.6051 18.7502 12.5 18.7502Z" fill="white"/>
</g>
<defs>
<clipPath id="clip0_297_1030">
<rect width="25" height="25" fill="white"/>
</clipPath>
</defs>
</svg>
