<svg width="15" height="15" viewBox="0 0 15 15" fill="none" xmlns="http://www.w3.org/2000/svg">
<path d="M1.25 8.75C1.94036 8.75 2.5 8.19036 2.5 7.5C2.5 6.80964 1.94036 6.25 1.25 6.25C0.559644 6.25 0 6.80964 0 7.5C0 8.19036 0.559644 8.75 1.25 8.75Z" fill="black"/>
<path d="M7.5 8.75C8.19036 8.75 8.75 8.19036 8.75 7.5C8.75 6.80964 8.19036 6.25 7.5 6.25C6.80964 6.25 6.25 6.80964 6.25 7.5C6.25 8.19036 6.80964 8.75 7.5 8.75Z" fill="black"/>
<path d="M13.75 8.75C14.4404 8.75 15 8.19036 15 7.5C15 6.80964 14.4404 6.25 13.75 6.25C13.0596 6.25 12.5 6.80964 12.5 7.5C12.5 8.19036 13.0596 8.75 13.75 8.75Z" fill="black"/>
</svg>
