<svg width="25" height="25" viewBox="0 0 25 25" fill="none" xmlns="http://www.w3.org/2000/svg">
<path d="M18.6673 1.56773C18.6669 1.98199 18.5021 2.37915 18.209 2.67189L10.2173 10.6636C9.97539 10.9054 9.78351 11.1925 9.6526 11.5085C9.52168 11.8245 9.4543 12.1632 9.4543 12.5052C9.4543 12.8473 9.52168 13.186 9.6526 13.502C9.78351 13.818 9.97539 14.1051 10.2173 14.3469L18.1985 22.3281C18.4832 22.6228 18.6406 23.0175 18.6371 23.4272C18.6335 23.8369 18.4692 24.2288 18.1795 24.5185C17.8898 24.8082 17.4979 24.9725 17.0882 24.9761C16.6785 24.9796 16.2839 24.8221 15.9892 24.5375L8.00791 16.5625C6.93475 15.4872 6.33203 14.0301 6.33203 12.511C6.33203 10.9918 6.93475 9.53467 8.00791 8.45939L15.9996 0.462517C16.2181 0.243855 16.4966 0.0949271 16.7998 0.0345791C17.103 -0.025769 17.4172 0.00517492 17.7028 0.123495C17.9884 0.241816 18.2325 0.442194 18.4042 0.699276C18.5759 0.956358 18.6674 1.25859 18.6673 1.56773Z" fill="black"/>
</svg>
